#!OML:ASF F:\VICON\USERDATA\INSTALL\rory3\rory3.ASF
:FULLY-SPECIFIED
:DEGREES
19
root 0.358793 18.0364 -15.822700000000035 -1.5353900000000014 -2.603250000000001 -6.343279999999995
lfemur -28.048300000000026 -0.3372139999999988 -13.0543
ltibia 49.86660000000002
lfoot -7.69796 0.6665490000000034
ltoes -5.72704
rfemur -1.593659999999991 6.335939999999998 33.2222
rtibia 27.38569999999998
rfoot -18.952300000000008 -7.412459999999999
rtoes 2.899159999999997
lowerback 1.0 1.0440899999999997 6.46176999999999
upperback -0.3244169999999995 2.3811100000000005 2.398169999999999
thorax -6.349480000000002 0.9954290000000011 -1.4916399999999939
lowerneck -15.1212 -3.31642 -1.2587400000000013
upperneck 23.150400000000005 -4.13602 -0.7793490000000013
head 9.85229 -2.11557 -0.5919460000000006
lclavicle -9.566509999999977e-15 -3.518490000000008e-14
lhumerus -36.08900000000001 6.453320000000003 81.8109
lradius 24.1217
lwrist 2.85178
lhand -25.660700000000002 22.849300000000003
lfingers 7.12502
lthumb 0.8734470000000001 52.8273
rclavicle -9.566509999999977e-15 -3.518490000000008e-14
rhumerus -25.045399999999994 -12.451000000000008 -80.571
rradius 28.134700000000002
rwrist 0.6212419999999943
rhand -19.2901 1.0
rfingers 7.12502
rthumb 7.0250900000000005 -7.81929
20
root 0.364247 18.0047 -15.18070000000006 -1.0497399999999992 -2.972770000000002 -6.575560000000009
lfemur -28.88040000000001 -0.9313650000000012 -12.514500000000002
ltibia 40.6122
lfoot -6.075589999999998 2.488039999999998
ltoes -10.7408
rfemur 1.3323099999999855 6.14271 33.528300000000016
rtibia 25.316399999999994
rfoot -19.147500000000004 -7.18266
rtoes 1.8170099999999914
lowerback 1.0 1.2131700000000027 6.622899999999987
upperback -0.13168300000000063 2.603479999999999 2.4448300000000005
thorax -6.04148 1.1128599999999982 -1.5598999999999934
lowerneck -15.8705 -3.1980999999999997 -1.51465
upperneck 23.1606 -3.9268399999999994 -0.6215510000000016
head 10.0077 -2.01962 -0.482081
lclavicle -8.175019999999998e-15 -1.172830000000001e-14
lhumerus -36.0822 8.115600000000008 81.3316
lradius 23.185099999999995
lwrist 2.739159999999999
lhand -25.969600000000003 22.864499999999996
lfingers 7.12502
lthumb 0.5751400000000009 52.8435
rclavicle -8.175019999999998e-15 -1.172830000000001e-14
rhumerus -22.53499999999999 -10.505899999999993 -81.0836
rradius 29.312700000000007
rwrist -0.383957000000005
rhand -19.6407 1.0
rfingers 7.12502
rthumb 6.68672 -7.881269999999999
21
root 0.3705455922158224 18.018192616964974 -14.555473262283071 -0.6195403404350863 -3.5964411569215176 -7.139071432835756
lfemur -28.604309962954623 -1.4795815482258872 -11.263268951736475
ltibia 31.88465859617445
lfoot -1.2427377890478146 2.0969104382794965
ltoes -10.08580139263698
rfemur 4.645265883923612 6.118126625272495 34.060767289441365
rtibia 22.365240802223163
rfoot -18.385361727229025 -6.859612260185311
rtoes 2.208417485620846
lowerback 1.0 1.534223162611703 7.114507470914861
upperback -0.4259722457674021 3.1180555864527535 2.4675286549178264
thorax -6.437192560397907 1.3558594160652404 -1.8535672692281924
lowerneck -15.0877676109918 -3.23353202483364 -1.3109940341044215
upperneck 22.837616300040516 -3.982847846895507 -0.6500394707504801
head 9.70306853213287 -2.0550101779671506 -0.5442590346169127
lclavicle -4.560727100877213e-14 -1.3178087967890456e-14
lhumerus -37.20784579863879 8.709263409028916 80.79626455385025
lradius 22.382202361437038
lwrist 2.6625256793035454
lhand -26.10723946741896 21.46031975228999
lfingers nan
lthumb 0.478355923295988 51.511210219055414
rclavicle -4.517245555231186e-14 -1.2806163904723876e-14
rhumerus -21.47370134574768 -9.66857378695681 -81.16704406487578
rradius 30.061894864112375
rwrist -0.5478041380950867
rhand -19.88745697431722 1.0
rfingers nan
rthumb 6.390049564500997 -7.46892767676088
22
root 0.4023450595395905 17.990949259175828 -13.88116743288784 -0.28370816875801586 -3.8470463731330744 -7.176578087233132
lfemur -27.936507100171944 -2.9500523710391366 -10.677963972002443
ltibia 23.256773145225303
lfoot 2.581750612052918 0.17031664114962553
ltoes -14.131404832072889
rfemur 7.023594134582405 5.833782122069694 33.83429719816726
rtibia 21.400170612785473
rfoot -17.7840037466331 -6.145199162441375
rtoes -0.22979776757580517
lowerback 1.0 1.6608940159508836 7.061313931300501
upperback -0.24208575473531715 3.149737452314747 2.4503553843116475
thorax -5.9199298343274 1.4061136277520176 -1.8127404841976154
lowerneck -15.662885291963475 -3.241521787426088 -1.3432142011156907
upperneck 22.838988135138525 -4.043264595182326 -0.6952737337892586
head 9.867153296858302 -2.066473876822112 -0.5255133604807396
lclavicle -2.838254069222497e-14 -1.7401221073913979e-15
lhumerus -36.720001501590765 10.336622779189398 80.26497081909672
lradius 20.70883007538848
lwrist 0.9581301986226323
lhand -26.33252986059969 20.09549906915623
lfingers nan
lthumb 0.1869092036614982 50.020508898738434
rclavicle -2.8249835435613085e-14 -1.590929193264576e-15
rhumerus -19.81172666276399 -9.374794448218159 -81.27760402904038
rradius 30.734694877657574
rwrist -0.968870092573682
rhand -19.646085436141572 1.0
rfingers nan
rthumb 6.639185620900875 -7.804429347535166
